<svg width="685" height="684" viewBox="0 0 685 684" fill="none" xmlns="http://www.w3.org/2000/svg" aria-hidden="true">
<path d="M342.2 684C531.192 684 684.4 530.881 684.4 342C684.4 153.119 531.192 0 342.2 0C153.208 0 0 153.119 0 342C0 530.881 153.208 684 342.2 684Z" fill="#3F3F3F"/>
<path d="M341.265 154C409.861 154 475.455 200.947 497.06 264.171L459.029 247.366C438.326 214.518 397.433 181.018 341.281 181.018C294.431 181.018 250.054 205.984 224.155 246.464L186 262.88C207.994 200.294 273.463 154 341.265 154Z" fill="#7CB739"/>
<path d="M186 352.624H217.311V470.816H186V352.624Z" fill="#F59117"/>
<path d="M465.5 352.624H496.811V470.816H465.5V352.624Z" fill="#017DC8"/>
<path d="M372.203 352.624H403.515V470.816H372.203V352.624Z" fill="#9B288B"/>
<path d="M279.156 352.624H310.467V470.816H279.156V352.624Z" fill="#E52224"/>
<path d="M186 324.705L341.141 256.429L496.935 324.705V296.505L341.141 228.229L186 296.505V324.705Z" fill="#F7D103"/>
<path d="M497.06 503.913H186V529.407H497.044V503.913H497.06Z" fill="#00B5CC"/>
</svg>
